<svg version="1.1" id="Layer_1" xmlns="http://www.w3.org/2000/svg" xmlns:xlink="http://www.w3.org/1999/xlink" x="0px" y="0px"
	 width="100%" viewBox="0 0 1000 1000" enable-background="new 0 0 1000 1000" xml:space="preserve">
<path fill="#010000" opacity="1.000000" stroke="none" 
	d="
M704.773621,875.900330 
	C678.441895,890.446045 650.972412,902.326355 621.839844,909.934998 
	C603.327576,914.770020 584.667053,919.172546 565.883057,922.780212 
	C555.014587,924.867554 543.786621,925.311768 532.688904,925.917114 
	C519.946411,926.612061 507.170410,926.735413 494.406586,926.984314 
	C476.628601,927.330994 459.032745,925.500366 441.417236,923.131287 
	C419.453705,920.177551 397.950836,915.381958 376.793304,908.972229 
	C356.673340,902.876892 336.984192,895.606079 318.217499,886.021484 
	C309.516937,881.577942 300.823486,877.120544 291.981079,871.887573 
	C293.329681,858.113464 293.881287,844.924988 296.534943,832.174072 
	C300.723724,812.046997 310.325989,794.019714 320.932434,776.513184 
	C323.889282,771.632690 326.639313,766.192322 327.663147,760.671021 
	C329.470001,750.927124 329.877686,740.923645 331.006592,730.636414 
	C334.337891,705.786499 339.834564,681.875610 348.997528,658.943481 
	C355.397430,642.926514 362.359619,627.133728 369.115448,611.259827 
	C372.498535,603.310608 372.348541,602.815918 364.776306,599.205139 
	C339.268311,587.041748 313.564697,575.189148 292.769928,555.307983 
	C290.478149,553.116943 288.220795,552.992920 285.633820,554.557190 
	C279.525818,558.250427 273.419556,561.947083 267.277924,565.583801 
	C265.099670,566.873657 262.820892,567.993774 260.588013,569.191345 
	C260.276642,568.834229 259.965302,568.477051 259.653961,568.119934 
	C260.604675,566.909241 261.478149,565.627136 262.519073,564.499756 
	C267.823456,558.754944 272.994690,552.869446 278.583923,547.413635 
	C281.081635,544.975586 281.408661,542.929016 279.897888,540.043396 
	C277.828674,536.091003 275.933289,532.047668 273.954163,527.677002 
	C273.448364,526.275513 272.963745,525.234253 272.453247,524.205872 
	C268.767151,516.780273 268.662994,516.460938 260.910583,518.942078 
	C250.451080,522.289612 240.168594,526.190308 229.414764,529.879761 
	C227.980789,529.948120 226.942184,529.990356 226.095795,529.743591 
	C229.045013,527.928101 231.724442,526.235535 234.573059,524.905273 
	C244.335297,520.346558 254.133270,515.862122 263.969788,511.466156 
	C267.045013,510.091797 268.765625,507.942719 268.795959,504.611572 
	C268.857727,497.837402 268.814423,491.062225 268.814423,483.759979 
	C265.222137,483.570007 262.406494,483.020111 259.701233,483.356995 
	C252.946365,484.198181 246.242722,485.448975 239.516418,486.522308 
	C233.754547,487.441711 227.989792,488.343018 222.226318,489.252289 
	C221.965546,488.563385 221.704788,487.874481 221.444031,487.185577 
	C223.033203,486.255676 224.513641,484.928558 226.228851,484.459198 
	C239.309586,480.879364 252.399170,477.315796 265.570282,474.091522 
	C269.684845,473.084259 272.047974,471.260162 273.489807,467.141388 
	C275.452850,461.533813 278.319580,456.244720 280.747559,450.796265 
	C281.373108,449.392487 281.807007,447.903259 282.408539,446.232178 
	C274.688965,445.183350 267.595367,444.384369 260.576447,443.158203 
	C258.653595,442.822296 256.954346,441.206116 255.152466,440.177460 
	C256.323242,438.468597 257.165344,436.338440 258.721863,435.123932 
	C265.404633,429.909698 272.220215,424.855072 279.147888,419.969910 
	C282.391388,417.682617 283.504333,415.391754 282.447449,411.234528 
	C277.907990,393.378784 273.503632,375.478241 269.596619,357.475403 
	C266.325500,342.402740 263.812622,327.165497 261.013367,311.578156 
	C260.656342,308.189545 259.938934,305.228607 259.893707,302.257477 
	C259.584564,281.946136 259.268066,261.632172 259.328522,241.320145 
	C259.340637,237.264587 260.622650,233.100388 261.917786,229.184265 
	C264.666199,220.874039 269.930145,218.030914 278.393646,219.519913 
	C297.323425,222.850281 315.402527,228.940262 332.893402,236.716797 
	C353.820923,246.021271 374.642578,255.574768 395.340424,265.378571 
	C401.908142,268.489471 407.784180,268.606110 414.371979,265.592987 
	C420.381439,262.844360 426.782867,260.869812 433.136536,258.972717 
	C449.709381,254.024429 466.843903,253.224167 483.973846,252.413559 
	C485.800385,252.327133 487.583557,251.324890 489.386841,250.747498 
	C488.522003,248.860474 487.970978,246.728577 486.728516,245.136200 
	C483.925537,241.543854 480.780670,238.218292 477.774902,234.784195 
	C478.001831,234.400497 478.228760,234.016815 478.455688,233.633133 
	C481.623779,234.303818 484.875031,234.712097 487.947144,235.685654 
	C520.203125,245.907532 552.468445,256.103546 584.633545,266.605682 
	C591.027344,268.693298 596.525146,268.422668 602.737793,265.672089 
	C625.481812,255.602524 648.230652,245.464844 671.434265,236.539795 
	C687.504578,230.358490 704.080078,225.026978 721.704834,225.004883 
	C729.961792,224.994522 732.411255,226.942001 734.873596,234.984116 
	C738.067810,245.416351 739.609558,256.048706 738.977661,267.420166 
	C737.822693,284.479370 737.686951,301.201660 735.520813,317.656647 
	C731.133850,350.982452 722.613770,383.490906 713.765869,415.875702 
	C713.020691,418.603210 713.550110,420.023132 715.554199,421.791565 
	C722.667847,428.069000 729.671387,434.477814 736.531372,441.030884 
	C737.956909,442.392609 738.588806,444.585205 739.586487,446.394897 
	C737.518005,447.204376 735.503540,448.481354 733.369934,448.728149 
	C728.591431,449.280853 723.743164,449.199982 718.943420,449.611328 
	C715.620483,449.896118 714.277649,451.382507 715.802002,454.994659 
	C719.023560,462.628387 722.040161,470.357544 724.842163,478.154877 
	C725.894470,481.083191 727.604980,482.457367 730.538574,482.802551 
	C749.378784,485.019409 766.682800,492.387299 784.237061,498.903198 
	C784.869507,499.137939 785.350098,499.781921 787.115234,501.233002 
	C783.867371,500.804688 782.097046,500.720581 780.399780,500.324005 
	C765.049683,496.737457 749.695862,493.163727 734.381348,489.429688 
	C729.819336,488.317383 727.618469,490.088318 727.363770,494.452332 
	C727.082458,499.269897 727.363831,504.128082 726.933838,508.926788 
	C726.597778,512.676453 728.154663,514.520508 731.328613,516.172058 
	C743.113098,522.304138 754.776428,528.671204 766.432068,535.047058 
	C768.611816,536.239441 770.546936,537.878662 772.594971,539.311707 
	C769.789490,539.344971 767.533264,538.428345 765.279724,537.505371 
	C754.222717,532.976624 743.237000,528.262268 732.083862,523.984070 
	C725.198303,521.342834 724.323669,521.973145 721.302368,528.674133 
	C721.030090,529.278076 720.813843,529.907227 720.571716,530.524780 
	C718.624878,535.490662 714.463318,540.895935 715.337463,545.302124 
	C716.260620,549.955383 721.978027,553.661804 725.612976,557.771301 
	C728.453003,560.982117 731.311340,564.176697 734.161499,567.378540 
	C733.848816,567.722595 733.536133,568.066650 733.223450,568.410767 
	C726.602783,564.701538 720.039978,560.883972 713.346191,557.311768 
	C705.695923,553.229065 705.434082,553.101929 699.184265,559.049194 
	C689.086731,568.657959 677.863647,576.495117 665.310364,582.540344 
	C657.097229,586.495483 649.048767,590.792419 640.559937,594.963623 
	C638.208191,595.823792 636.218689,596.646484 634.238647,597.491394 
	C625.167542,601.362061 624.207153,603.745544 627.997681,612.717346 
	C632.189941,622.640137 636.194458,632.645203 640.548096,642.496338 
	C655.313538,675.906860 664.513916,710.739075 666.348083,747.248657 
	C667.008240,760.388550 668.184509,772.753113 678.859314,782.017761 
	C679.224060,782.334290 679.577209,782.664307 680.030151,783.329224 
	C697.893738,811.860657 704.930542,842.919189 704.773621,875.900330 
M498.741516,664.504211 
	C495.633392,662.638123 492.525269,660.772095 489.423706,658.909912 
	C475.914276,684.099976 462.436493,709.230957 449.396637,733.545410 
	C463.365448,727.453003 477.715790,721.194153 491.765259,715.066528 
	C492.136505,710.609131 492.112274,705.611877 493.056091,700.804688 
	C494.480713,693.548645 499.388885,688.502808 504.270264,688.290833 
	C509.146210,688.079163 514.225403,692.682373 515.989868,700.167053 
	C517.220093,705.385620 517.219543,710.894409 517.652954,715.138733 
	C531.935791,721.415039 545.882874,727.543823 559.689331,733.610840 
	C552.831360,718.452942 552.831360,718.452942 538.104370,706.862366 
	C538.227051,706.698608 538.349731,706.534790 539.162415,706.571228 
	C541.398743,707.425232 543.635132,708.279175 546.026550,709.618164 
	C546.254333,709.614258 546.482056,709.610352 546.709839,709.606445 
	C546.551819,709.322876 546.393799,709.039307 546.154175,708.047363 
	C531.963501,679.996033 517.772827,651.944763 503.819305,624.362244 
	C501.502289,629.985779 498.760559,636.685974 495.980286,643.370178 
	C494.398712,647.172424 490.903992,651.364807 491.637390,654.623962 
	C492.434448,658.166260 497.135590,660.830017 499.734100,664.303589 
	C499.617157,664.459656 499.500183,664.615784 498.741516,664.504211 
M356.411713,355.922882 
	C346.299072,368.560822 343.127869,383.105042 342.816162,399.091766 
	C342.171936,432.131836 375.392090,463.522644 414.047577,447.558228 
	C442.499908,435.807526 459.872162,402.870972 452.598633,372.991913 
	C446.180634,346.627197 424.374054,331.026031 400.458649,331.879883 
	C381.814514,332.545471 368.191620,341.592865 356.411713,355.922882 
M288.576599,386.683258 
	C288.905975,387.689270 289.235321,388.695282 289.564667,389.701324 
	C304.981567,351.993896 327.249878,319.622101 359.751312,294.762695 
	C348.559021,279.012054 335.785339,265.996185 320.039215,256.349304 
	C312.816101,251.924088 304.856720,247.868973 296.691986,245.993454 
	C281.794861,242.571396 279.726990,245.052109 277.060211,258.321747 
	C273.285034,277.106781 274.126068,296.179260 276.494019,314.930603 
	C279.499023,338.726105 284.257202,362.300232 288.576599,386.683258 
M573.574341,336.980774 
	C569.588135,339.639435 565.091125,341.769714 561.701904,345.045959 
	C544.818909,361.366150 540.754639,381.523926 546.124023,403.639343 
	C552.537598,430.055267 573.460632,448.948242 600.210266,451.663849 
	C622.228027,453.899139 642.192627,442.752075 651.815308,417.574036 
	C660.567139,394.674530 653.582581,361.599365 629.593567,343.913269 
	C612.497864,331.309326 594.133057,328.313507 573.574341,336.980774 
M719.999390,329.484009 
	C720.646667,312.206696 721.668091,294.931488 721.765198,277.651093 
	C721.806641,270.273773 720.301392,262.806305 718.790710,255.526794 
	C717.511230,249.361115 713.609863,246.676483 707.592224,247.392868 
	C702.869019,247.955154 698.080078,248.919571 693.614685,250.524261 
	C676.606567,256.636292 663.384521,268.270905 650.825500,280.748810 
	C646.613892,284.933197 642.602600,289.319275 638.090393,294.041626 
	C641.306396,296.976654 644.093994,299.292938 646.619690,301.866241 
	C656.149353,311.575287 666.150269,320.895325 674.937134,331.242249 
	C687.472961,346.003906 696.179260,363.227966 703.927124,380.909149 
	C705.107483,383.602783 706.528320,386.191040 707.837891,388.828064 
	C708.541931,388.732605 709.245972,388.637177 709.950073,388.541748 
	C713.289246,369.157654 716.628479,349.773590 719.999390,329.484009 
M481.765686,422.024384 
	C475.494568,425.917419 474.538452,429.880341 479.752441,433.936371 
	C494.883850,445.707336 501.758942,446.151978 516.377075,435.056976 
	C523.404175,429.723450 522.546631,423.997192 514.111816,421.414978 
	C503.724335,418.234985 492.989594,417.876434 481.765686,422.024384 
M514.649780,477.034485 
	C526.088257,480.430939 533.607239,478.806854 536.567810,472.086456 
	C519.942078,474.836121 505.018677,473.975189 498.826416,453.316498 
	C492.242310,473.860840 477.196472,475.551483 459.557068,472.969360 
	C462.877777,475.641357 466.096954,477.905487 469.544464,478.334229 
	C480.863403,479.742004 490.278900,475.302582 497.810638,467.450256 
	C503.395111,470.732269 508.629944,473.808838 514.649780,477.034485 
z"/>
<path fill="#FFCECE" opacity="1.000000" stroke="none" 
	d="
M739.078125,266.962311 
	C739.609558,256.048706 738.067810,245.416351 734.873596,234.984116 
	C732.411255,226.942001 729.961792,224.994522 721.704834,225.004883 
	C704.080078,225.026978 687.504578,230.358490 671.434265,236.539795 
	C648.230652,245.464844 625.481812,255.602524 602.737793,265.672089 
	C596.525146,268.422668 591.027344,268.693298 584.633545,266.605682 
	C552.468445,256.103546 520.203125,245.907532 487.947144,235.685654 
	C484.875031,234.712097 481.623779,234.303818 478.455688,233.633133 
	C478.228760,234.016815 478.001831,234.400497 477.774902,234.784195 
	C480.780670,238.218292 483.925537,241.543854 486.728516,245.136200 
	C487.970978,246.728577 488.522003,248.860474 489.386841,250.747498 
	C487.583557,251.324890 485.800385,252.327133 483.973846,252.413559 
	C466.843903,253.224167 449.709381,254.024429 433.136536,258.972717 
	C426.782867,260.869812 420.381439,262.844360 414.371979,265.592987 
	C407.784180,268.606110 401.908142,268.489471 395.340424,265.378571 
	C374.642578,255.574768 353.820923,246.021271 332.893402,236.716797 
	C315.402527,228.940262 297.323425,222.850281 278.393646,219.519913 
	C269.930145,218.030914 264.666199,220.874039 261.917786,229.184265 
	C260.622650,233.100388 259.340637,237.264587 259.328522,241.320145 
	C259.268066,261.632172 259.584564,281.946136 259.893707,302.257477 
	C259.938934,305.228607 260.656342,308.189545 260.622375,311.631378 
	C250.342834,314.399750 240.509842,316.719086 230.663132,318.978607 
	C207.950470,324.190521 185.858810,331.293030 164.352234,340.288086 
	C141.256500,349.947723 118.068069,359.385681 94.920097,368.920380 
	C98.153961,359.213989 100.935455,349.327850 104.706543,339.834900 
	C115.999542,311.406982 130.438370,284.601837 147.828094,259.432739 
	C160.150314,241.598114 173.276550,224.384186 188.552979,208.913147 
	C190.284012,207.160049 191.787064,205.181824 194.162659,203.153168 
	C199.923370,202.946289 204.966064,203.321121 209.901459,202.757080 
	C221.710617,201.407516 233.475388,199.659073 245.246811,197.992111 
	C260.128571,195.884674 275.002106,193.718399 289.873749,191.540344 
	C304.580933,189.386368 319.276764,187.154648 333.986023,185.015045 
	C348.860687,182.851379 363.751923,180.801300 378.624390,178.623230 
	C393.330719,176.469482 408.016144,174.173309 422.722656,172.021042 
	C439.558105,169.557190 456.424225,167.298355 473.244476,164.736710 
	C489.244446,162.300003 505.209839,159.632217 521.177002,156.985046 
	C540.243103,153.824097 559.308838,150.656235 578.349243,147.345123 
	C597.560181,144.004364 616.689209,140.162460 635.946838,137.128738 
	C657.479980,133.736526 679.123169,131.045425 700.694092,127.883362 
	C701.910034,127.705116 702.905273,126.021675 704.003235,125.038788 
	C717.750244,133.294357 731.908325,140.944321 745.155823,149.935745 
	C770.202576,166.935638 792.705383,187.045029 813.483215,209.049362 
	C817.790527,213.610855 821.665039,218.581085 825.688782,223.954285 
	C799.569580,244.366806 771.180847,259.454163 739.078125,266.962311 
z"/>
<path fill="#FFA1AE" opacity="1.000000" stroke="none" 
	d="
M738.977661,267.420166 
	C771.180847,259.454163 799.569580,244.366806 825.821533,224.265137 
	C832.226807,231.441757 838.904480,238.569443 844.584106,246.419235 
	C860.007751,267.736176 874.005554,289.982025 885.330688,313.781921 
	C901.350708,347.447876 913.651489,382.402985 919.931702,419.240875 
	C922.529602,434.479401 924.738220,449.857300 925.810669,465.263214 
	C926.985535,482.138428 926.644104,499.119202 926.628784,516.677734 
	C924.594421,518.331421 922.947021,519.462219 921.186951,520.376038 
	C895.867981,533.520996 868.855591,542.461792 841.912903,551.361877 
	C818.161316,559.207825 794.066040,566.147644 769.834839,572.366699 
	C748.996155,577.715027 727.578247,580.803650 706.733948,586.133240 
	C685.062195,591.674316 663.422241,596.151428 640.926575,594.936340 
	C649.048767,590.792419 657.097229,586.495483 665.310364,582.540344 
	C677.863647,576.495117 689.086731,568.657959 699.184265,559.049194 
	C705.434082,553.101929 705.695923,553.229065 713.346191,557.311768 
	C720.039978,560.883972 726.602783,564.701538 733.223450,568.410767 
	C733.536133,568.066650 733.848816,567.722595 734.161499,567.378540 
	C731.311340,564.176697 728.453003,560.982117 725.612976,557.771301 
	C721.978027,553.661804 716.260620,549.955383 715.337463,545.302124 
	C714.463318,540.895935 718.624878,535.490662 720.571716,530.524780 
	C720.813843,529.907227 721.030090,529.278076 721.302368,528.674133 
	C724.323669,521.973145 725.198303,521.342834 732.083862,523.984070 
	C743.237000,528.262268 754.222717,532.976624 765.279724,537.505371 
	C767.533264,538.428345 769.789490,539.344971 772.594971,539.311707 
	C770.546936,537.878662 768.611816,536.239441 766.432068,535.047058 
	C754.776428,528.671204 743.113098,522.304138 731.328613,516.172058 
	C728.154663,514.520508 726.597778,512.676453 726.933838,508.926788 
	C727.363831,504.128082 727.082458,499.269897 727.363770,494.452332 
	C727.618469,490.088318 729.819336,488.317383 734.381348,489.429688 
	C749.695862,493.163727 765.049683,496.737457 780.399780,500.324005 
	C782.097046,500.720581 783.867371,500.804688 787.115234,501.233002 
	C785.350098,499.781921 784.869507,499.137939 784.237061,498.903198 
	C766.682800,492.387299 749.378784,485.019409 730.538574,482.802551 
	C727.604980,482.457367 725.894470,481.083191 724.842163,478.154877 
	C722.040161,470.357544 719.023560,462.628387 715.802002,454.994659 
	C714.277649,451.382507 715.620483,449.896118 718.943420,449.611328 
	C723.743164,449.199982 728.591431,449.280853 733.369934,448.728149 
	C735.503540,448.481354 737.518005,447.204376 739.586487,446.394897 
	C738.588806,444.585205 737.956909,442.392609 736.531372,441.030884 
	C729.671387,434.477814 722.667847,428.069000 715.554199,421.791565 
	C713.550110,420.023132 713.020691,418.603210 713.765869,415.875702 
	C722.613770,383.490906 731.133850,350.982452 735.520813,317.656647 
	C737.686951,301.201660 737.822693,284.479370 738.977661,267.420166 
z"/>
<path fill="#D9A8FA" opacity="1.000000" stroke="none" 
	d="
M640.559937,594.963623 
	C663.422241,596.151428 685.062195,591.674316 706.733948,586.133240 
	C727.578247,580.803650 748.996155,577.715027 769.834839,572.366699 
	C794.066040,566.147644 818.161316,559.207825 841.912903,551.361877 
	C868.855591,542.461792 895.867981,533.520996 921.186951,520.376038 
	C922.947021,519.462219 924.594421,518.331421 926.589050,517.143982 
	C925.618713,532.456238 924.701660,547.964172 923.012329,563.387512 
	C919.938293,591.452881 912.467651,618.514099 903.068420,645.054138 
	C894.413147,669.493530 884.019714,693.202881 870.279236,715.216309 
	C859.603699,732.319641 848.590942,749.295532 836.493835,765.401001 
	C827.572815,777.277954 816.661011,787.659607 805.887451,798.850586 
	C801.186462,798.669922 797.236145,798.321533 793.281860,798.026917 
	C779.766418,797.019836 766.212158,796.384338 752.742004,794.954285 
	C732.208618,792.774231 711.736816,790.084412 691.754944,784.507690 
	C687.968750,783.450989 683.883179,783.466980 679.935791,782.987976 
	C679.577209,782.664307 679.224060,782.334290 678.859314,782.017761 
	C668.184509,772.753113 667.008240,760.388550 666.348083,747.248657 
	C664.513916,710.739075 655.313538,675.906860 640.548096,642.496338 
	C636.194458,632.645203 632.189941,622.640137 627.997681,612.717346 
	C624.207153,603.745544 625.167542,601.362061 634.238647,597.491394 
	C636.218689,596.646484 638.208191,595.823792 640.559937,594.963623 
z"/>
<path fill="#D9A8FA" opacity="1.000000" stroke="none" 
	d="
M273.963379,528.043274 
	C275.933289,532.047668 277.828674,536.091003 279.897888,540.043396 
	C281.408661,542.929016 281.081635,544.975586 278.583923,547.413635 
	C272.994690,552.869446 267.823456,558.754944 262.519073,564.499756 
	C261.478149,565.627136 260.604675,566.909241 259.653961,568.119934 
	C259.965302,568.477051 260.276642,568.834229 260.588013,569.191345 
	C262.820892,567.993774 265.099670,566.873657 267.277924,565.583801 
	C273.419556,561.947083 279.525818,558.250427 285.633820,554.557190 
	C288.220795,552.992920 290.478149,553.116943 292.769928,555.307983 
	C313.564697,575.189148 339.268311,587.041748 364.776306,599.205139 
	C372.348541,602.815918 372.498535,603.310608 369.115448,611.259827 
	C362.359619,627.133728 355.397430,642.926514 348.997528,658.943481 
	C339.834564,681.875610 334.337891,705.786499 330.557617,730.630249 
	C313.789490,731.138428 298.295380,735.117249 282.693756,738.926819 
	C251.194809,746.618164 220.456451,756.257568 191.761139,771.646851 
	C186.797867,774.308594 181.953247,777.191467 177.053833,779.972168 
	C159.232086,759.828796 143.819504,737.914551 130.474670,714.632385 
	C118.432556,693.623047 108.197884,671.715820 99.770470,648.935181 
	C91.140648,625.607300 85.107002,601.641296 80.267365,577.321533 
	C79.593178,573.933716 79.405807,570.448975 79.357697,566.502686 
	C93.339951,560.665039 106.901024,555.183289 120.589256,550.039917 
	C138.549759,543.291138 157.290436,539.715210 176.217010,537.022827 
	C192.775589,534.667297 209.341125,532.360779 225.903580,530.032593 
	C226.942184,529.990356 227.980789,529.948120 229.886902,529.929077 
	C245.157410,529.315918 259.560394,528.679565 273.963379,528.043274 
z"/>
<path fill="#FFA1AE" opacity="1.000000" stroke="none" 
	d="
M226.095795,529.743652 
	C209.341125,532.360779 192.775589,534.667297 176.217010,537.022827 
	C157.290436,539.715210 138.549759,543.291138 120.589256,550.039917 
	C106.901024,555.183289 93.339951,560.665039 79.348961,566.076355 
	C77.985893,559.874939 76.402176,553.620422 76.115097,547.306946 
	C75.159393,526.289368 73.833847,505.233490 74.265366,484.225464 
	C74.609314,467.481018 76.323967,450.611145 79.221230,434.111450 
	C82.854279,413.421539 88.307465,393.050781 93.015701,372.551605 
	C93.269897,371.444855 93.898949,370.424225 94.636803,369.141937 
	C118.068069,359.385681 141.256500,349.947723 164.352234,340.288086 
	C185.858810,331.293030 207.950470,324.190521 230.663132,318.978607 
	C240.509842,316.719086 250.342834,314.399750 260.573029,312.054352 
	C263.812622,327.165497 266.325500,342.402740 269.596619,357.475403 
	C273.503632,375.478241 277.907990,393.378784 282.447449,411.234528 
	C283.504333,415.391754 282.391388,417.682617 279.147888,419.969910 
	C272.220215,424.855072 265.404633,429.909698 258.721863,435.123932 
	C257.165344,436.338440 256.323242,438.468597 255.152466,440.177460 
	C256.954346,441.206116 258.653595,442.822296 260.576447,443.158203 
	C267.595367,444.384369 274.688965,445.183350 282.408539,446.232178 
	C281.807007,447.903259 281.373108,449.392487 280.747559,450.796265 
	C278.319580,456.244720 275.452850,461.533813 273.489807,467.141388 
	C272.047974,471.260162 269.684845,473.084259 265.570282,474.091522 
	C252.399170,477.315796 239.309586,480.879364 226.228851,484.459198 
	C224.513641,484.928558 223.033203,486.255676 221.444031,487.185577 
	C221.704788,487.874481 221.965546,488.563385 222.226318,489.252289 
	C227.989792,488.343018 233.754547,487.441711 239.516418,486.522308 
	C246.242722,485.448975 252.946365,484.198181 259.701233,483.356995 
	C262.406494,483.020111 265.222137,483.570007 268.814423,483.759979 
	C268.814423,491.062225 268.857727,497.837402 268.795959,504.611572 
	C268.765625,507.942719 267.045013,510.091797 263.969788,511.466156 
	C254.133270,515.862122 244.335297,520.346558 234.573059,524.905273 
	C231.724442,526.235535 229.045013,527.928101 226.095795,529.743652 
z"/>
<path fill="#FDE1DD" opacity="1.000000" stroke="none" 
	d="
M703.812500,124.750748 
	C702.905273,126.021675 701.910034,127.705116 700.694092,127.883362 
	C679.123169,131.045425 657.479980,133.736526 635.946838,137.128738 
	C616.689209,140.162460 597.560181,144.004364 578.349243,147.345123 
	C559.308838,150.656235 540.243103,153.824097 521.177002,156.985046 
	C505.209839,159.632217 489.244446,162.300003 473.244476,164.736710 
	C456.424225,167.298355 439.558105,169.557190 422.722656,172.021042 
	C408.016144,174.173309 393.330719,176.469482 378.624390,178.623230 
	C363.751923,180.801300 348.860687,182.851379 333.986023,185.015045 
	C319.276764,187.154648 304.580933,189.386368 289.873749,191.540344 
	C275.002106,193.718399 260.128571,195.884674 245.246811,197.992111 
	C233.475388,199.659073 221.710617,201.407516 209.901459,202.757080 
	C204.966064,203.321121 199.923370,202.946289 194.460693,202.995911 
	C201.476685,195.689117 208.423187,187.710114 216.557709,181.220184 
	C233.766403,167.490677 251.003403,153.650009 269.299011,141.461365 
	C302.654510,119.239723 338.952393,103.015305 377.454712,91.592163 
	C399.578217,85.028412 422.044800,80.317833 444.830109,77.186562 
	C455.793335,75.679924 466.956207,75.317131 478.042206,75.086388 
	C494.200165,74.750053 510.370911,74.908218 526.535034,75.021935 
	C549.648926,75.184540 572.285889,79.100136 594.793518,83.972374 
	C633.015259,92.246254 669.215515,105.940369 703.812500,124.750748 
z"/>
<path fill="#FFC3E9" opacity="1.000000" stroke="none" 
	d="
M177.166748,780.285767 
	C181.953247,777.191467 186.797867,774.308594 191.761139,771.646851 
	C220.456451,756.257568 251.194809,746.618164 282.693756,738.926819 
	C298.295380,735.117249 313.789490,731.138428 330.422089,731.022705 
	C329.877686,740.923645 329.470001,750.927124 327.663147,760.671021 
	C326.639313,766.192322 323.889282,771.632690 320.932434,776.513184 
	C310.325989,794.019714 300.723724,812.046997 296.534943,832.174072 
	C293.881287,844.924988 293.329681,858.113464 291.797607,871.573059 
	C289.498627,871.352051 286.984528,871.086975 285.014893,869.910400 
	C263.406006,857.001831 242.487976,843.057373 223.758026,826.161377 
	C210.958572,814.615234 198.612320,802.562866 186.187302,790.608032 
	C182.978577,787.520691 180.236252,783.948669 177.166748,780.285767 
z"/>
<path fill="#FEC2E8" opacity="1.000000" stroke="none" 
	d="
M680.030151,783.329224 
	C683.883179,783.466980 687.968750,783.450989 691.754944,784.507690 
	C711.736816,790.084412 732.208618,792.774231 752.742004,794.954285 
	C766.212158,796.384338 779.766418,797.019836 793.281860,798.026917 
	C797.236145,798.321533 801.186462,798.669922 805.598633,799.011597 
	C793.552307,810.600586 781.656189,822.936462 768.374695,833.536377 
	C753.945923,845.051941 738.313721,855.077881 723.029053,865.493225 
	C717.438965,869.302429 711.340210,872.364990 705.123535,875.834229 
	C704.930542,842.919189 697.893738,811.860657 680.030151,783.329224 
z"/>
<path fill="#FDFCFC" opacity="1.000000" stroke="none" 
	d="
M356.647919,355.654663 
	C368.191620,341.592865 381.814514,332.545471 400.458649,331.879883 
	C424.374054,331.026031 446.180634,346.627197 452.598633,372.991913 
	C459.872162,402.870972 442.499908,435.807526 414.047577,447.558228 
	C375.392090,463.522644 342.171936,432.131836 342.816162,399.091766 
	C343.127869,383.105042 346.299072,368.560822 356.647919,355.654663 
M372.853394,393.768707 
	C372.794159,395.097351 372.683441,396.425995 372.683411,397.754639 
	C372.683350,418.504486 390.335541,433.071350 410.679382,429.121674 
	C427.145447,425.924866 441.658356,409.655426 442.999939,392.889252 
	C444.409882,375.268616 433.894043,360.134338 418.768921,358.016205 
	C396.222290,354.858734 376.076569,370.161957 372.853394,393.768707 
z"/>
<path fill="#FEBBEF" opacity="1.000000" stroke="none" 
	d="
M288.418030,386.326538 
	C284.257202,362.300232 279.499023,338.726105 276.494019,314.930603 
	C274.126068,296.179260 273.285034,277.106781 277.060211,258.321747 
	C279.726990,245.052109 281.794861,242.571396 296.691986,245.993454 
	C304.856720,247.868973 312.816101,251.924088 320.039215,256.349304 
	C335.785339,265.996185 348.559021,279.012054 359.751312,294.762695 
	C327.249878,319.622101 304.981567,351.993896 289.564667,389.701324 
	C289.235321,388.695282 288.905975,387.689270 288.418030,386.326538 
z"/>
<path fill="#FDFCFD" opacity="1.000000" stroke="none" 
	d="
M573.935059,336.853790 
	C594.133057,328.313507 612.497864,331.309326 629.593567,343.913269 
	C653.582581,361.599365 660.567139,394.674530 651.815308,417.574036 
	C642.192627,442.752075 622.228027,453.899139 600.210266,451.663849 
	C573.460632,448.948242 552.537598,430.055267 546.124023,403.639343 
	C540.754639,381.523926 544.818909,361.366150 561.701904,345.045959 
	C565.091125,341.769714 569.588135,339.639435 573.935059,336.853790 
M578.100708,426.527924 
	C585.024292,429.943634 592.329895,431.180389 599.854858,429.456207 
	C620.591797,424.704956 630.040466,404.873932 622.438904,383.346497 
	C616.306091,365.978546 602.687256,358.231537 582.978394,357.757416 
	C572.397766,357.502838 557.340088,367.768311 555.322998,380.934387 
	C552.342529,400.389526 557.895447,415.012634 578.100708,426.527924 
z"/>
<path fill="#FEBBF0" opacity="1.000000" stroke="none" 
	d="
M719.983521,329.936768 
	C716.628479,349.773590 713.289246,369.157654 709.950073,388.541748 
	C709.245972,388.637177 708.541931,388.732605 707.837891,388.828064 
	C706.528320,386.191040 705.107483,383.602783 703.927124,380.909149 
	C696.179260,363.227966 687.472961,346.003906 674.937134,331.242249 
	C666.150269,320.895325 656.149353,311.575287 646.619690,301.866241 
	C644.093994,299.292938 641.306396,296.976654 638.090393,294.041626 
	C642.602600,289.319275 646.613892,284.933197 650.825500,280.748810 
	C663.384521,268.270905 676.606567,256.636292 693.614685,250.524261 
	C698.080078,248.919571 702.869019,247.955154 707.592224,247.392868 
	C713.609863,246.676483 717.511230,249.361115 718.790710,255.526794 
	C720.301392,262.806305 721.806641,270.273773 721.765198,277.651093 
	C721.668091,294.931488 720.646667,312.206696 719.983521,329.936768 
z"/>
<path fill="#BC7CDA" opacity="1.000000" stroke="none" 
	d="
M545.871460,709.133179 
	C543.635132,708.279175 541.398743,707.425232 538.510132,706.321655 
	C537.037048,706.148254 536.216187,706.224304 533.977783,706.431763 
	C536.166809,706.960693 536.939148,707.147339 537.711426,707.333923 
	C552.831360,718.452942 552.831360,718.452942 559.689331,733.610840 
	C545.882874,727.543823 531.935791,721.415039 517.652954,715.138733 
	C517.219543,710.894409 517.220093,705.385620 515.989868,700.167053 
	C514.225403,692.682373 509.146210,688.079163 504.270264,688.290833 
	C499.388885,688.502808 494.480713,693.548645 493.056091,700.804688 
	C492.112274,705.611877 492.136505,710.609131 491.765259,715.066528 
	C477.715790,721.194153 463.365448,727.453003 449.396637,733.545410 
	C462.436493,709.230957 475.914276,684.099976 489.423706,658.909912 
	C492.525269,660.772095 495.633392,662.638123 499.257629,664.842773 
	C500.133087,665.261169 500.492432,665.340942 500.851776,665.420715 
	C500.612640,664.906067 500.373535,664.391479 500.134430,663.876831 
	C497.135590,660.830017 492.434448,658.166260 491.637390,654.623962 
	C490.903992,651.364807 494.398712,647.172424 495.980286,643.370178 
	C498.760559,636.685974 501.502289,629.985779 503.819305,624.362244 
	C517.772827,651.944763 531.963501,679.996033 546.104187,708.496216 
	C546.054199,708.945068 545.871460,709.133179 545.871460,709.133179 
z"/>
<path fill="#FBB8EC" opacity="1.000000" stroke="none" 
	d="
M482.131714,421.904663 
	C492.989594,417.876434 503.724335,418.234985 514.111816,421.414978 
	C522.546631,423.997192 523.404175,429.723450 516.377075,435.056976 
	C501.758942,446.151978 494.883850,445.707336 479.752441,433.936371 
	C474.538452,429.880341 475.494568,425.917419 482.131714,421.904663 
z"/>
<path fill="#F3F1F1" opacity="1.000000" stroke="none" 
	d="
M514.257324,476.959961 
	C508.629944,473.808838 503.395111,470.732269 497.810638,467.450256 
	C490.278900,475.302582 480.863403,479.742004 469.544464,478.334229 
	C466.096954,477.905487 462.877777,475.641357 459.557068,472.969360 
	C477.196472,475.551483 492.242310,473.860840 498.826416,453.316498 
	C505.018677,473.975189 519.942078,474.836121 536.567810,472.086456 
	C533.607239,478.806854 526.088257,480.430939 514.257324,476.959961 
z"/>
<path fill="#F99EAE" opacity="1.000000" stroke="none" 
	d="
M273.954163,527.677002 
	C259.560394,528.679565 245.157410,529.315918 230.282288,529.902954 
	C240.168594,526.190308 250.451080,522.289612 260.910583,518.942078 
	C268.662994,516.460938 268.767151,516.780273 272.453247,524.205872 
	C272.963745,525.234253 273.448364,526.275513 273.954163,527.677002 
z"/>
<path fill="#BC7CDA" opacity="1.000000" stroke="none" 
	d="
M546.145020,708.850403 
	C546.393799,709.039307 546.551819,709.322876 546.709839,709.606445 
	C546.482056,709.610352 546.254333,709.614258 545.948975,709.375671 
	C545.871460,709.133179 546.054199,708.945068 546.145020,708.850403 
z"/>
<path fill="#010101" opacity="1.000000" stroke="none" 
	d="
M372.881958,393.310059 
	C376.076569,370.161957 396.222290,354.858734 418.768921,358.016205 
	C433.894043,360.134338 444.409882,375.268616 442.999939,392.889252 
	C441.658356,409.655426 427.145447,425.924866 410.679382,429.121674 
	C390.335541,433.071350 372.683350,418.504486 372.683411,397.754639 
	C372.683441,396.425995 372.794159,395.097351 372.881958,393.310059 
z"/>
<path fill="#010101" opacity="1.000000" stroke="none" 
	d="
M577.782288,426.322205 
	C557.895447,415.012634 552.342529,400.389526 555.322998,380.934387 
	C557.340088,367.768311 572.397766,357.502838 582.978394,357.757416 
	C602.687256,358.231537 616.306091,365.978546 622.438904,383.346497 
	C630.040466,404.873932 620.591797,424.704956 599.854858,429.456207 
	C592.329895,431.180389 585.024292,429.943634 577.782288,426.322205 
z"/>
<path fill="#010000" opacity="1.000000" stroke="none" 
	d="
M537.907898,707.098145 
	C536.939148,707.147339 536.166809,706.960693 533.977783,706.431763 
	C536.216187,706.224304 537.037048,706.148254 538.165161,706.221558 
	C538.349731,706.534790 538.227051,706.698608 537.907898,707.098145 
z"/>
<path fill="#010000" opacity="1.000000" stroke="none" 
	d="
M499.934265,664.090210 
	C500.373535,664.391479 500.612640,664.906067 500.851776,665.420715 
	C500.492432,665.340942 500.133087,665.261169 499.578461,664.976624 
	C499.500183,664.615784 499.617157,664.459656 499.934265,664.090210 
z"/>
</svg>
